<svg preserveAspectRatio="xMidYMid meet" width="29.2457" height="41.6973" overflow="visible" style="display: block;" viewBox="0 0 29.2457 41.6973" fill="none" xmlns="http://www.w3.org/2000/svg">
<g id="mSupply Logo">
<g id="Outline">
<g id="Fill">
<path fill-rule="evenodd" clip-rule="evenodd" d="M13.8063 4.10289C13.8063 4.10289 13.4454 3.75375 13.1265 3.64628C12.9197 3.57672 16.512 2.37368 17.5094 0.893498C17.5918 0.770652 17.9925 1.36549 17.9427 2.00001C17.9 2.53955 17.0928 5.12668 17.0928 5.12668C17.0928 5.12668 18.2965 5.20962 19.4866 4.89147C19.2882 5.47248 17.6452 6.78656 17.6452 6.78656C17.6452 6.78656 18.9869 8.54988 19.0691 8.67006C19.1512 8.79045 18.8291 9.12465 18.6652 9.12465C18.5009 9.12465 17.7585 12.2968 17.7585 12.4172C17.7585 12.5374 16.312 12.8776 16.2709 12.9982C16.2298 13.1184 17.8788 13.4802 19.1926 16.7672C19.1926 16.7672 18.3305 19.0522 16.6474 19.5334C16.6474 19.5334 14.0205 19.4932 14.9236 17.4086C14.9236 17.4086 10.7749 16.6783 10.8176 16.8718C10.8598 17.0653 13.2539 17.8265 13.9623 18.02C14.044 18.0548 14.0189 18.4213 14.0189 18.4213C14.0189 18.4213 11.3997 19.0322 11.5114 19.1267C11.8232 19.3898 14.0997 19.0551 14.1743 19.0993C14.2497 19.1432 14.2373 19.2237 14.2878 19.3622C14.3387 19.5004 12.908 20.2506 12.9847 20.4687C13.0617 20.6869 14.5752 19.792 14.6846 19.7907C14.7939 19.7896 15.1405 19.7851 15.1377 19.9015C15.1359 20.0181 14.5147 20.9806 14.6279 21.0911C14.7412 21.2017 15.5769 20.1367 15.6902 20.0812C15.8036 20.0261 16.0776 20.019 16.2426 20.109C16.2426 20.289 16.1575 20.6901 16.2145 20.7315C16.4552 20.6209 16.5545 20.4272 16.7526 19.9291C17.1772 20.0121 19.4441 18.1031 19.7261 16.6872C19.7841 16.6642 20.1808 18.3243 20.1808 18.3243C20.1808 18.3243 20.4214 17.8265 20.5349 17.3699C20.5803 17.1868 23.9362 17.49 24.5519 17.49C25.1675 17.49 26.5192 17.3988 27.4061 16.711C27.5077 16.6319 27.6849 16.5748 28.0191 16.7924C27.434 17.8546 21.8323 19.7075 21.2166 19.7875C20.7429 20.2778 21.4396 20.8492 21.3558 21.1489C20.6949 21.599 20.5194 22.1292 19.6275 22.7555C19.3209 24.0078 18.7072 25.179 18.8467 25.3422C23.9101 26.693 24.3151 32.3901 23.9211 33.8645C23.7752 34.1418 23.4574 34.2226 23.3358 34.2821C23.4748 34.8731 22.9682 36.611 22.9682 36.611C22.9682 36.611 25.8782 35.5743 27.894 36.6097C27.1516 37.1234 26.9496 37.6524 26.9496 37.6524C26.9496 37.6524 25.4221 37.4645 24.2923 37.7086C23.1059 37.9648 20.421 39.9038 16.9617 40.5626C16.3999 40.5015 16.3125 40.2576 16.375 40.1355C16.4371 40.0135 16.9992 40.1355 17.14 39.937C17.3612 39.6356 16.6618 39.3429 16.4746 39.5136C18.76 35.4038 15.2204 32.3114 14.7266 32.3299C14.4017 32.3424 14.7355 32.5763 14.7183 32.7214C11.1424 35.7328 11.1388 37.2922 11.1801 37.4525C11.221 37.613 4.03652 36.8425 4.03652 36.8425C4.03652 36.8425 3.83654 38.2506 3.08776 38.8185C2.60561 39.1837 2.10132 39.9404 2.11776 40.3381C2.12552 40.5383 1.75159 40.6478 1.75159 40.6478C1.69451 40.8121 1.50161 40.8429 1.33953 40.8063C1.81368 37.9523 1.90157 37.4525 1.93878 36.7698C1.96367 35.806 1.36441 34.0009 1.27698 33.9889C1.18954 33.9766 1.13955 34.2694 1.13955 34.2694C1.13955 34.2694 0.927238 34.3057 0.877243 34.2451C1.07722 32.4278 1.30186 31.0495 1.32674 30.7815C4.49903 31.0129 5.72243 31.3302 7.09649 31.0495C7.38345 30.5985 7.90463 28.0718 7.90463 28.0718L8.274 28.2323L8.64337 25.1453L7.20721 23.8223C7.20721 23.8223 9.45494 25.8032 13.3813 25.5178C17.1916 25.2414 19.3734 23.1385 19.1467 21.2849C18.5657 22.1702 17.0574 24.1438 12.9532 24.7043C12.7441 24.7293 12.8843 24.9544 12.7014 24.9788C11.0441 25.2001 7.74346 24.1902 6.79652 23.0611C5.72699 21.7863 5.46309 19.1684 6.42715 17.3288C6.10024 17.2316 6.12536 17.2963 6.0991 17.008C6.07217 16.7195 7.85167 14.1025 10.4635 13.7866C10.5767 13.7732 10.6331 12.9982 10.6331 12.9982C10.6331 12.9982 9.8969 12.3896 9.66998 12.0297C9.45813 11.6937 9.45768 10.6051 9.45768 10.6051L9.07507 10.937L8.35619 10.033L8.15461 10.2173C8.15461 10.2173 6.58604 8.74363 6.5502 8.42949C6.41209 8.07321 6.63878 5.30638 13.8063 4.10289" fill="var(--fill-0, white)"/>
<path d="M13.8063 4.10289C13.8063 4.10289 13.4454 3.75375 13.1265 3.64628C12.9197 3.57672 16.512 2.37368 17.5094 0.893498C17.5918 0.770652 17.9925 1.36549 17.9427 2.00001C17.9 2.53955 17.0928 5.12668 17.0928 5.12668C17.0928 5.12668 18.2965 5.20962 19.4866 4.89147C19.2882 5.47248 17.6452 6.78656 17.6452 6.78656C17.6452 6.78656 18.9869 8.54988 19.0691 8.67006C19.1512 8.79045 18.8291 9.12465 18.6652 9.12465C18.5009 9.12465 17.7585 12.2968 17.7585 12.4172C17.7585 12.5374 16.312 12.8776 16.2709 12.9982C16.2298 13.1184 17.8788 13.4802 19.1926 16.7672C19.1926 16.7672 18.3305 19.0522 16.6474 19.5334C16.6474 19.5334 14.0205 19.4932 14.9236 17.4086C14.9236 17.4086 10.7749 16.6783 10.8176 16.8718C10.8598 17.0653 13.2539 17.8265 13.9623 18.02C14.044 18.0548 14.0189 18.4213 14.0189 18.4213C14.0189 18.4213 11.3997 19.0322 11.5114 19.1267C11.8232 19.3898 14.0997 19.0551 14.1743 19.0993C14.2497 19.1432 14.2373 19.2237 14.2878 19.3622C14.3387 19.5004 12.908 20.2506 12.9847 20.4687C13.0617 20.6869 14.5752 19.792 14.6846 19.7907C14.7939 19.7896 15.1405 19.7851 15.1377 19.9015C15.1359 20.0181 14.5147 20.9806 14.6279 21.0911C14.7412 21.2017 15.5769 20.1367 15.6902 20.0812C15.8036 20.0261 16.0776 20.019 16.2426 20.109C16.2426 20.289 16.1575 20.6901 16.2145 20.7315C16.4552 20.6209 16.5545 20.4272 16.7526 19.9291C17.1772 20.0121 19.4441 18.1031 19.7261 16.6872C19.7841 16.6642 20.1808 18.3243 20.1808 18.3243C20.1808 18.3243 20.4214 17.8265 20.5349 17.3699C20.5803 17.1868 23.9362 17.49 24.5519 17.49C25.1675 17.49 26.5192 17.3988 27.4061 16.711C27.5077 16.6319 27.6849 16.5748 28.0191 16.7924C27.434 17.8546 21.8323 19.7075 21.2166 19.7875C20.7429 20.2778 21.4396 20.8492 21.3558 21.1489C20.6949 21.599 20.5194 22.1292 19.6275 22.7555C19.3209 24.0078 18.7072 25.179 18.8467 25.3422C23.9101 26.693 24.3151 32.3901 23.9211 33.8645C23.7752 34.1418 23.4574 34.2226 23.3358 34.2821C23.4748 34.8731 22.9682 36.611 22.9682 36.611C22.9682 36.611 25.8782 35.5743 27.894 36.6097C27.1516 37.1234 26.9496 37.6524 26.9496 37.6524C26.9496 37.6524 25.4221 37.4645 24.2923 37.7086C23.1059 37.9648 20.421 39.9038 16.9617 40.5626C16.3999 40.5015 16.3125 40.2576 16.375 40.1355C16.4371 40.0135 16.9992 40.1355 17.14 39.937C17.3612 39.6356 16.6618 39.3429 16.4746 39.5136C18.76 35.4038 15.2204 32.3114 14.7266 32.3299C14.4017 32.3424 14.7355 32.5763 14.7183 32.7214C11.1424 35.7328 11.1388 37.2922 11.1801 37.4525C11.221 37.613 4.03652 36.8425 4.03652 36.8425C4.03652 36.8425 3.83654 38.2506 3.08776 38.8185C2.60561 39.1837 2.10132 39.9404 2.11776 40.3381C2.12552 40.5383 1.75159 40.6478 1.75159 40.6478C1.69451 40.8121 1.50161 40.8429 1.33953 40.8063C1.81368 37.9523 1.90157 37.4525 1.93878 36.7698C1.96367 35.806 1.36441 34.0009 1.27698 33.9889C1.18954 33.9766 1.13955 34.2694 1.13955 34.2694C1.13955 34.2694 0.927238 34.3057 0.877243 34.2451C1.07722 32.4278 1.30186 31.0495 1.32674 30.7815C4.49903 31.0129 5.72243 31.3302 7.09649 31.0495C7.38345 30.5985 7.90463 28.0718 7.90463 28.0718L8.274 28.2323L8.64337 25.1453L7.20721 23.8223C7.20721 23.8223 9.45494 25.8032 13.3813 25.5178C17.1916 25.2414 19.3734 23.1385 19.1467 21.2849C18.5657 22.1702 17.0574 24.1438 12.9532 24.7043C12.7441 24.7293 12.8843 24.9544 12.7014 24.9788C11.0441 25.2001 7.74346 24.1902 6.79652 23.0611C5.72699 21.7863 5.46309 19.1684 6.42715 17.3288C6.10024 17.2316 6.12536 17.2963 6.0991 17.008C6.07217 16.7195 7.85167 14.1025 10.4635 13.7866C10.5767 13.7732 10.6331 12.9982 10.6331 12.9982C10.6331 12.9982 9.8969 12.3896 9.66998 12.0297C9.45813 11.6937 9.45768 10.6051 9.45768 10.6051L9.07507 10.937L8.35619 10.033L8.15461 10.2173C8.15461 10.2173 6.58604 8.74363 6.5502 8.42949C6.41209 8.07321 6.63878 5.30638 13.8063 4.10289" stroke="var(--stroke-0, white)" stroke-width="1.75448" stroke-linecap="round" stroke-linejoin="round"/>
</g>
</g>
<g id="Man">
<path id="Fill_2" fill-rule="evenodd" clip-rule="evenodd" d="M13.7125 4.04571C13.7125 4.04571 13.3516 3.69657 13.0326 3.58911C12.8258 3.51954 16.4182 2.3165 17.4156 0.83632C17.498 0.713474 17.8986 1.30831 17.8488 1.94283C17.8062 2.48237 16.9989 5.06951 16.9989 5.06951C16.9989 5.06951 18.2027 5.15244 19.3928 4.83429C19.1944 5.4153 17.5514 6.72938 17.5514 6.72938C17.5514 6.72938 18.893 8.49271 18.9752 8.61288C19.0574 8.73327 18.7353 9.06748 18.5714 9.06748C18.407 9.06748 17.6646 12.2396 17.6646 12.36C17.6646 12.4802 16.2182 12.8204 16.1771 12.941C16.136 13.0612 17.7849 13.4231 19.0987 16.71C19.0987 16.71 18.2367 18.9951 16.5535 19.4762C16.5535 19.4762 13.9266 19.4361 14.8297 17.3515C14.8297 17.3515 10.6811 16.6211 10.7237 16.8146C10.766 17.0081 13.16 17.7693 13.8684 17.9628C13.9501 17.9976 13.925 18.3641 13.925 18.3641C13.925 18.3641 11.3059 18.975 11.4175 19.0695C11.7294 19.3326 14.0058 18.998 14.0805 19.0421C14.1558 19.086 14.1435 19.1665 14.194 19.305C14.2449 19.4432 12.8142 20.1934 12.8909 20.4115C12.9678 20.6298 14.4814 19.7348 14.5907 19.7335C14.7001 19.7324 15.0466 19.7279 15.0439 19.8443C15.042 19.9609 14.4209 20.9234 14.5341 21.034C14.6473 21.1445 15.4831 20.0795 15.5963 20.024C15.7098 19.9689 15.9837 19.9618 16.1488 20.0519C16.1488 20.2318 16.0636 20.6329 16.1207 20.6743C16.3613 20.5638 16.4606 20.37 16.6588 19.8719C17.0834 19.9549 19.3503 18.046 19.6322 16.63C19.6902 16.607 20.087 18.2671 20.087 18.2671C20.087 18.2671 20.3276 17.7693 20.4411 17.3127C20.4865 17.1296 23.8423 17.4328 24.458 17.4328C25.0737 17.4328 26.4254 17.3417 27.3123 16.6539C27.4139 16.5747 27.591 16.5176 27.9252 16.7352C27.3401 17.7974 21.7384 19.6503 21.1227 19.7304C20.649 20.2206 21.3458 20.7921 21.262 21.0917C20.6011 21.5418 20.4255 22.072 19.5336 22.6983C19.227 23.9506 18.6134 25.1218 18.7529 25.285C23.8163 26.6359 24.2213 32.3329 23.8272 33.8073C23.6814 34.0847 23.3636 34.1654 23.2419 34.2249C23.3809 34.8159 22.8744 36.5539 22.8744 36.5539C22.8744 36.5539 25.7844 35.5171 27.8001 36.5525C27.0578 37.0662 26.8557 37.5953 26.8557 37.5953C26.8557 37.5953 25.3282 37.4073 24.1984 37.6514C23.012 37.9076 20.3271 39.8466 16.8679 40.5055C16.3061 40.4444 16.2186 40.2005 16.2812 40.0783C16.3433 39.9563 16.9053 40.0783 17.0462 39.8799C17.2674 39.5784 16.5679 39.2857 16.3807 39.4565C18.6661 35.3466 15.1265 32.2542 14.6327 32.2727C14.3079 32.2852 14.6416 32.5191 14.6245 32.6642C11.0486 35.6757 11.0449 37.235 11.0863 37.3953C11.1271 37.5558 3.94268 36.7853 3.94268 36.7853C3.94268 36.7853 3.7427 38.1934 2.99391 38.7613C2.51177 39.1265 2.00748 39.8832 2.02392 40.2809C2.03168 40.4812 1.65774 40.5906 1.65774 40.5906C1.60067 40.7549 1.40777 40.7857 1.24568 40.7491C1.71984 37.8951 1.80773 37.3953 1.84494 36.7126C1.86982 35.7488 1.27057 33.9438 1.18313 33.9317C1.0957 33.9195 1.0457 34.2122 1.0457 34.2122C1.0457 34.2122 0.833395 34.2485 0.7834 34.1879C0.98338 32.3706 1.20802 30.9923 1.2329 30.7243C4.40519 30.9558 5.62858 31.273 7.00265 30.9923C7.28961 30.5413 7.81079 28.0146 7.81079 28.0146L8.18016 28.1751L8.54953 25.0881L7.11337 23.7651C7.11337 23.7651 9.36109 25.7461 13.2874 25.4607C17.0978 25.1842 19.2795 23.0813 19.0528 21.2277C18.4718 22.1131 16.9635 24.0866 12.8594 24.6471C12.6503 24.6721 12.7904 24.8973 12.6076 24.9216C10.9502 25.143 7.64962 24.133 6.70268 23.004C5.63315 21.7291 5.36925 19.1112 6.33331 17.2717C6.0064 17.1744 6.03151 17.2391 6.00526 16.9508C5.97832 16.6623 7.75783 14.0453 10.3697 13.7294C10.4829 13.716 10.5393 12.941 10.5393 12.941C10.5393 12.941 9.80306 12.3324 9.57614 11.9725C9.36429 11.6365 9.36383 10.5479 9.36383 10.5479L8.98122 10.8799L8.26234 9.97578L8.06077 10.1602C8.06077 10.1602 6.4922 8.68645 6.45636 8.37231C6.31824 8.01604 6.54493 5.2492 13.7125 4.04571" fill="url(#paint0_linear_6305_26342)"/>
</g>
<path id="Cross" fill-rule="evenodd" clip-rule="evenodd" d="M23.3262 10.6452L23.3072 8.51689H26.6044L26.6236 10.6178H28.7795L28.7834 13.6064L26.6236 13.6156L26.6327 15.7622L23.2634 15.7441L23.2691 13.6245L21.1563 13.6156L21.1469 10.6546L23.3262 10.6452Z" fill="var(--fill-0, #28293D)" stroke="var(--stroke-0, white)" stroke-width="0.92341"/>
</g>
<defs>
<linearGradient id="paint0_linear_6305_26342" x1="-7.98366" y1="13.722" x2="20.2865" y2="43.4581" gradientUnits="userSpaceOnUse">
<stop stop-color="#FF8800"/>
<stop offset="1" stop-color="#E63535"/>
</linearGradient>
</defs>
</svg>
