<svg width="30" height="30" viewBox="0 0 30 30" fill="none" xmlns="http://www.w3.org/2000/svg">
<path fill-rule="evenodd" clip-rule="evenodd" d="M14.1968 2.41921C14.1968 2.41921 13.9261 2.15735 13.6869 2.07676C13.5318 2.02459 16.2261 1.1223 16.9741 0.012168C17.0359 -0.0799669 17.3364 0.36616 17.2991 0.84205C17.2671 1.24671 16.6616 3.18706 16.6616 3.18706C16.6616 3.18706 17.5645 3.24926 18.457 3.01065C18.3082 3.44641 17.076 4.43196 17.076 4.43196C17.076 4.43196 18.0822 5.75446 18.1439 5.84459C18.2055 5.93488 17.9639 6.18553 17.841 6.18553C17.7177 6.18553 17.1609 8.56465 17.1609 8.65495C17.1609 8.74508 16.0761 9.00024 16.0453 9.09071C16.0144 9.18084 17.2511 9.45222 18.2365 11.9175C18.2365 11.9175 17.59 13.6312 16.3276 13.9921C16.3276 13.9921 14.3574 13.962 15.0348 12.3985C15.0348 12.3985 11.9232 11.8507 11.9553 11.9959C11.9869 12.141 13.7825 12.7119 14.3138 12.857C14.3751 12.8831 14.3562 13.158 14.3562 13.158C14.3562 13.158 12.3919 13.6162 12.4756 13.6871C12.7095 13.8844 14.4168 13.6334 14.4728 13.6665C14.5293 13.6995 14.5201 13.7598 14.5579 13.8637C14.5961 13.9673 13.5231 14.53 13.5806 14.6935C13.6383 14.8572 14.7735 14.186 14.8555 14.185C14.9375 14.1842 15.1974 14.1809 15.1954 14.2681C15.194 14.3556 14.7281 15.0775 14.813 15.1604C14.8979 15.2433 15.5248 14.4446 15.6097 14.4029C15.6948 14.3616 15.9002 14.3563 16.024 14.4238C16.024 14.5588 15.9602 14.8596 16.003 14.8907C16.1834 14.8077 16.2579 14.6624 16.4065 14.2889C16.725 14.3511 18.4252 12.9194 18.6366 11.8574C18.6801 11.8402 18.9777 13.0853 18.9777 13.0853C18.9777 13.0853 19.1581 12.7119 19.2432 12.3694C19.2773 12.2322 21.7942 12.4596 22.256 12.4596C22.7177 12.4596 23.7315 12.3912 24.3967 11.8753C24.4729 11.816 24.6057 11.7732 24.8564 11.9364C24.4176 12.733 20.2163 14.1227 19.7545 14.1827C19.3992 14.5504 19.9218 14.979 19.8589 15.2037C19.3633 15.5413 19.2316 15.9389 18.5627 16.4087C18.3327 17.3479 17.8725 18.2263 17.9771 18.3487C21.7747 19.3618 22.0784 23.6346 21.7829 24.7404C21.6735 24.9484 21.4351 25.009 21.3439 25.0536C21.4482 25.4969 21.0682 26.8003 21.0682 26.8003C21.0682 26.8003 23.2507 26.0228 24.7626 26.7993C24.2058 27.1846 24.0542 27.5814 24.0542 27.5814C24.0542 27.5814 22.9086 27.4404 22.0613 27.6235C21.1715 27.8156 19.1578 29.2699 16.5634 29.764C16.142 29.7182 16.0764 29.5353 16.1233 29.4436C16.1699 29.3522 16.5914 29.4436 16.6971 29.2948C16.863 29.0687 16.3384 28.8492 16.198 28.9773C17.912 25.8949 15.2573 23.5756 14.887 23.5895C14.6434 23.5988 14.8937 23.7743 14.8808 23.8831C12.1989 26.1417 12.1962 27.3112 12.2272 27.4314C12.2578 27.5518 6.86946 26.9739 6.86946 26.9739C6.86946 26.9739 6.71947 28.03 6.15788 28.4559C5.79628 28.7298 5.41806 29.2973 5.43039 29.5956C5.43621 29.7458 5.15576 29.8279 5.15576 29.8279C5.11295 29.9511 4.96828 29.9742 4.84671 29.9468C5.20233 27.8063 5.26825 27.4314 5.29615 26.9194C5.31482 26.1965 4.86537 24.8427 4.7998 24.8337C4.73422 24.8245 4.69673 25.0441 4.69673 25.0441C4.69673 25.0441 4.5375 25.0713 4.5 25.0258C4.64999 23.6629 4.81846 22.6292 4.83712 22.4282C7.21634 22.6017 8.13389 22.8397 9.16444 22.6292C9.37966 22.2909 9.77054 20.3959 9.77054 20.3959L10.0476 20.5163L10.3246 18.201L9.24748 17.2088C9.24748 17.2088 10.9333 18.6945 13.878 18.4804C16.7358 18.2731 18.3721 16.6959 18.2021 15.3057C17.7663 15.9697 16.6351 17.4499 13.557 17.8703C13.4002 17.889 13.5053 18.0579 13.3681 18.0761C12.1251 18.2422 9.64966 17.4847 8.93946 16.6379C8.13731 15.6818 7.93939 13.7183 8.66243 12.3387C8.41725 12.2658 8.43609 12.3143 8.4164 12.098C8.39619 11.8817 9.73082 9.91892 11.6897 9.68197C11.7746 9.67194 11.8169 9.09071 11.8169 9.09071C11.8169 9.09071 11.2647 8.63421 11.0946 8.36433C10.9357 8.11234 10.9353 7.29583 10.9353 7.29583L10.6484 7.54482L10.1092 6.86676L9.95802 7.00505C9.95802 7.00505 8.7816 5.89977 8.75472 5.66416C8.65113 5.39695 8.82115 3.32183 14.1968 2.41921" fill="white"/>
<path fill-rule="evenodd" clip-rule="evenodd" d="M21.4071 7.36868L21.3929 5.77246H23.8657L23.8801 7.34812H25.4971L25.5 9.58962L23.8801 9.59647L23.887 11.2064L21.36 11.1929L21.3643 9.60316L19.7797 9.59647L19.7727 7.37571L21.4071 7.36868Z" fill="#D84829" stroke="white"/>
</svg>
